# xmcd CD database file
#
# Track frame offsets:
#	150
#	16854
#	36026
#	54401
#	78544
#	96102
#	115163
#	134170
#	155474
#	178944
#	203767
#	229810
#	255793
#	275284
#
# Disc length: 4042 seconds
#
# Revision: 0
# Processed by: cddbd v1.5.2PL0 Copyright (c) Steve Scherf et al.
# Submitted via: CDex 1.70beta2
#
DISCID=b40fc80e
DTITLE=Midnight Groove - Midnight Groove Live (2005)
DYEAR=2005
DGENRE=Jazz
TTITLE0=Change the World
TTITLE1=What's going On
TTITLE2=Fever
TTITLE3=Midnight at the Oasis
TTITLE4=We're In this Love
TTITLE5=Lily Was here
TTITLE6=Ain't no Sunshine
TTITLE7=Killing me Softly
TTITLE8=Just the two of Us
TTITLE9=Tyrone
TTITLE10=Georgia
TTITLE11=Favourite
TTITLE12=Sweet Love
TTITLE13=Summertime
EXTD=YEAR: 2005
EXTT0=
EXTT1=
EXTT2=
EXTT3=
EXTT4=
EXTT5=
EXTT6=
EXTT7=
EXTT8=
EXTT9=
EXTT10=
EXTT11=
EXTT12=
EXTT13=
PLAYORDER=
